<svg width="13" height="12" viewBox="0 0 13 12" fill="none" xmlns="http://www.w3.org/2000/svg">
<path d="M0.5 2.95773C0.5 3.2886 0.757694 3.56055 1.08654 3.57741C3.43948 3.69798 5.02196 4.55857 6.47946 6.03049C7.91171 7.47548 8.82277 9.54886 8.97923 11.4308C9.00599 11.7523 9.27332 12.0001 9.5944 12.0001H11.8063C11.9757 12.0001 12.1378 11.9301 12.2544 11.8066C12.3711 11.6831 12.4321 11.5169 12.4234 11.3469C12.1085 5.14764 7.32615 0.436827 1.1493 0.127242C0.98024 0.118736 0.815232 0.180355 0.692548 0.297518C0.569904 0.414681 0.5 0.577313 0.5 0.747393V2.95773Z" fill="white"/>
</svg>

